<svg xmlns="http://www.w3.org/2000/svg" style="display:none">
<symbol id="icon-hoy" viewBox="0 0 24 24">
  <circle cx="12" cy="12" r="4"/>
  <path d="M12 2.8v1.4M12 19.8v1.4M4.9 4.9l1 1M18.1 18.1l1 1M2.8 12h1.4M19.8 12h1.4M4.9 19.1l1-1M18.1 5.9l1-1"/>
  <path d="M12 9.8V12l1.7 1.1"/>
</symbol>
<symbol id="icon-turnos" viewBox="0 0 24 24">
  <rect x="4" y="4.5" width="16" height="15.5" rx="3"/>
  <path d="M8 3v3M16 3v3M4 8.5h16"/>
  <path d="M8.2 14l2.2 2.2 5.2-5.2"/>
</symbol>
<symbol id="icon-peluqueria" viewBox="0 0 24 24">
  <circle cx="6.2" cy="7.4" r="2.1"/>
  <circle cx="6.2" cy="16.6" r="2.1"/>
  <path d="M8 8.6l9.8 8M8 15.4l9.8-8"/>
  <path d="M17.8 7.4l2.2-1.6M17.8 16.6l2.2 1.6"/>
</symbol>
<symbol id="icon-calendario" viewBox="0 0 24 24">
  <rect x="3.8" y="4.5" width="16.4" height="15.5" rx="3"/>
  <path d="M8 3v3M16 3v3M3.8 8.6h16.4"/>
  <path d="M7.2 12h.1M12 12h.1M16.8 12h.1M7.2 15.7h.1M12 15.7h.1M16.8 15.7h.1"/>
</symbol>
<symbol id="icon-pacientes" viewBox="0 0 24 24">
  <ellipse cx="12" cy="15.2" rx="4.3" ry="3.4"/>
  <circle cx="6.9" cy="10.2" r="1.7"/>
  <circle cx="10" cy="7.6" r="1.7"/>
  <circle cx="14" cy="7.6" r="1.7"/>
  <circle cx="17.1" cy="10.2" r="1.7"/>
</symbol>
<symbol id="icon-tutores" viewBox="0 0 24 24">
  <circle cx="9" cy="8" r="3"/>
  <path d="M4.5 19.5c.7-3.4 2.4-5.1 4.5-5.1s3.8 1.7 4.5 5.1"/>
  <circle cx="16.6" cy="13.4" r="1.6"/>
  <path d="M14.1 20c.4-2.4 1.3-3.6 2.5-3.6s2.1 1.2 2.5 3.6"/>
  <path d="M17.8 11.8l1.2-1.1M15.4 11.8l-1.2-1.1"/>
</symbol>
<symbol id="icon-panel" viewBox="0 0 24 24">
  <rect x="3.5" y="4" width="17" height="16" rx="3"/>
  <path d="M8 15v1.8M12 12v4.8M16 9.5v7.3"/>
  <path d="M7 8h4M7 11h2"/>
  <rect x="14" y="7" width="3.5" height="2.2" rx=".7"/>
</symbol>
<symbol id="icon-avisos" viewBox="0 0 24 24">
  <path d="M18 10.5c0-3.5-2.2-6-6-6s-6 2.5-6 6v3.3l-1.7 2.8h15.4L18 13.8v-3.3Z"/>
  <path d="M10 19c.4 1 1.1 1.5 2 1.5s1.6-.5 2-1.5"/>
  <circle cx="18.5" cy="5.2" r="1.4"/>
</symbol>
<symbol id="icon-inventario" viewBox="0 0 24 24">
  <path d="M4 8l8-4 8 4-8 4-8-4Z"/>
  <path d="M4 8v8l8 4 8-4V8"/>
  <path d="M12 12v8"/>
  <path d="M8.2 6.1l8 4"/>
</symbol>
<symbol id="icon-facturacion" viewBox="0 0 24 24">
  <path d="M6 3.8h12v16.4l-2-1.2-2 1.2-2-1.2-2 1.2-2-1.2-2 1.2V3.8Z"/>
  <path d="M9 8h6M9 11.5h6M9 15h3.8"/>
  <circle cx="15.6" cy="15" r=".3"/>
</symbol>
<symbol id="icon-cumpleanos" viewBox="0 0 24 24">
  <path d="M7 12h10a2 2 0 0 1 2 2v5H5v-5a2 2 0 0 1 2-2Z"/>
  <path d="M5 16h14"/>
  <path d="M9 12V9.2M12 12V9.2M15 12V9.2"/>
  <path d="M9 7.3c.7-.7.7-1.5 0-2.3-.7.8-.7 1.6 0 2.3ZM12 7.3c.7-.7.7-1.5 0-2.3-.7.8-.7 1.6 0 2.3ZM15 7.3c.7-.7.7-1.5 0-2.3-.7.8-.7 1.6 0 2.3Z"/>
</symbol>
<symbol id="icon-respaldo" viewBox="0 0 24 24">
  <ellipse cx="12" cy="6" rx="5.5" ry="2.5"/>
  <path d="M6.5 6v4.5c0 1.4 2.5 2.5 5.5 2.5s5.5-1.1 5.5-2.5V6"/>
  <path d="M6.5 10.5v4.5c0 1.4 2.5 2.5 5.5 2.5.8 0 1.5-.1 2.2-.2"/>
  <path d="M17 14v4h4"/>
  <path d="M21 18c-.7 1.7-2.1 2.8-4 2.8-1.5 0-2.8-.8-3.6-2"/>
</symbol>
<symbol id="icon-mas" viewBox="0 0 24 24">
  <path d="M12 5v14M5 12h14"/>
</symbol>
<symbol id="icon-editar" viewBox="0 0 24 24">
  <path d="M4 20l3.9-.9L19 8a2.1 2.1 0 0 0-3-3L4.9 16.1 4 20Z"/>
  <path d="M14.5 6.5l3 3"/>
</symbol>
<symbol id="icon-eliminar" viewBox="0 0 24 24">
  <path d="M4 6.5h16M9 6.5V4h6v2.5M7 6.5l.8 13h8.4l.8-13"/>
  <path d="M10.2 10.5v5.5M13.8 10.5v5.5"/>
</symbol>
<symbol id="icon-cerrar" viewBox="0 0 24 24">
  <path d="M6 6l12 12M18 6L6 18"/>
</symbol>
<symbol id="icon-confirmar" viewBox="0 0 24 24">
  <path d="M5 12.7l4.2 4.2L19 7.1"/>
</symbol>
<symbol id="icon-buscar" viewBox="0 0 24 24">
  <circle cx="10.5" cy="10.5" r="5.8"/>
  <path d="M15 15l4.5 4.5"/>
</symbol>
<symbol id="icon-mas-opciones" viewBox="0 0 24 24">
  <circle cx="6" cy="12" r="1"/>
  <circle cx="12" cy="12" r="1"/>
  <circle cx="18" cy="12" r="1"/>
</symbol>
<symbol id="icon-menu" viewBox="0 0 24 24">
  <path d="M4.5 7h15M4.5 12h15M4.5 17h15"/>
</symbol>
<symbol id="icon-imprimir" viewBox="0 0 24 24">
  <path d="M7 8V4h10v4"/>
  <rect x="6" y="14" width="12" height="6" rx="1.5"/>
  <path d="M6 17H4.5A2.5 2.5 0 0 1 2 14.5V11a3 3 0 0 1 3-3h14a3 3 0 0 1 3 3v3.5a2.5 2.5 0 0 1-2.5 2.5H18"/>
  <path d="M17 11.5h.1"/>
</symbol>
<symbol id="icon-descargar" viewBox="0 0 24 24">
  <path d="M12 4v10"/>
  <path d="M8.2 10.2L12 14l3.8-3.8"/>
  <path d="M5 17v2.5h14V17"/>
</symbol>
<symbol id="icon-tema-oscuro" viewBox="0 0 24 24">
  <path d="M19.4 15.2A7.2 7.2 0 0 1 8.8 4.6 8.2 8.2 0 1 0 19.4 15.2Z"/>
</symbol>
<symbol id="icon-tema-claro" viewBox="0 0 24 24">
  <circle cx="12" cy="12" r="3.5"/>
  <path d="M12 3v1.5M12 19.5V21M3 12h1.5M19.5 12H21M5.6 5.6l1.1 1.1M17.3 17.3l1.1 1.1M18.4 5.6l-1.1 1.1M6.7 17.3l-1.1 1.1"/>
</symbol>
<symbol id="icon-alerta" viewBox="0 0 24 24">
  <path d="M12 4.2 21 19H3L12 4.2Z"/>
  <path d="M12 9v4.5M12 17h.1"/>
</symbol>
<symbol id="icon-enlace" viewBox="0 0 24 24">
  <path d="M10.2 13.8a3.2 3.2 0 0 0 4.5 0l3.2-3.2a3.2 3.2 0 0 0-4.5-4.5l-1.2 1.2"/>
  <path d="M13.8 10.2a3.2 3.2 0 0 0-4.5 0l-3.2 3.2a3.2 3.2 0 0 0 4.5 4.5l1.2-1.2"/>
</symbol>
<symbol id="icon-telefono" viewBox="0 0 24 24">
  <path d="M6.5 4.5 9 7.2 7.6 9c1.2 2.5 3.1 4.4 5.5 5.5l1.8-1.4 2.6 2.5c.5.5.5 1.3 0 1.8l-1.2 1.2c-.8.8-2 .9-3.1.5C9 17.6 6.4 15 4.9 10.8c-.4-1.1-.3-2.3.5-3.1l1.2-1.2c.5-.5 1.3-.5 1.9 0Z"/>
</symbol>
<symbol id="icon-email" viewBox="0 0 24 24">
  <rect x="3.5" y="5.5" width="17" height="13" rx="2.5"/>
  <path d="M4 8l8 5.5L20 8"/>
</symbol>
<symbol id="icon-ubicacion" viewBox="0 0 24 24">
  <path d="M12 21s6-5.4 6-11a6 6 0 0 0-12 0c0 5.6 6 11 6 11Z"/>
  <circle cx="12" cy="10" r="2"/>
</symbol>
<symbol id="icon-whatsapp" viewBox="0 0 24 24">
  <path d="M5 19.5 6 16.5A7.5 7.5 0 1 1 8 18.4L5 19.5Z"/>
  <path d="M9.6 8.5c.4 2.4 2 4 4.4 4.9l1-.9 1.5 1.3c.2.2.3.5.1.8-.4.7-1.1 1.2-2 1.1-3-.3-6-3.1-6.6-6.1-.2-.9.3-1.7 1-2.1.3-.2.6-.1.8.1l1.2 1.5-1.4 1.4Z"/>
</symbol>
<symbol id="icon-vitales" viewBox="0 0 24 24">
  <path d="M12 5v14M5 12h14"/>
  <path d="M4 18h3l1.7-3.2 2.3 4.4 2.2-7.2 1.7 3h5.1"/>
</symbol>
<symbol id="icon-peso" viewBox="0 0 24 24">
  <rect x="4.5" y="5" width="15" height="14.5" rx="3.5"/>
  <path d="M8.5 10a4 4 0 0 1 7 0"/>
  <path d="M12 10l1.8-2"/>
  <path d="M9 15h6"/>
</symbol>
<symbol id="icon-temperatura" viewBox="0 0 24 24">
  <path d="M10 14.3V5.5a2.5 2.5 0 0 1 5 0v8.8a4 4 0 1 1-5 0Z"/>
  <path d="M12.5 7v7.8"/>
  <path d="M14.8 8.5h2.2M14.8 11.5h1.7"/>
</symbol>
<symbol id="icon-corazon" viewBox="0 0 24 24">
  <path d="M20.2 8.6c0 5-8.2 9.8-8.2 9.8S3.8 13.6 3.8 8.6A4.2 4.2 0 0 1 12 7a4.2 4.2 0 0 1 8.2 1.6Z"/>
  <path d="M7.3 12h2.4l1.2-2.2 2.2 4.6 1.2-2.4h2.4"/>
</symbol>
<symbol id="icon-radiografia" viewBox="0 0 24 24">
  <rect x="4" y="4" width="16" height="16" rx="2.5"/>
  <path d="M8.2 13.2c-1-.8-1-2.3 0-3.1.8-.7 2-.5 2.6.2l2.9 3c.7.7.9 1.8.2 2.6-.8 1-2.3 1-3.1 0-.7-.8-.5-2 .2-2.6l3.1-3c.7-.7 1.8-.9 2.6-.2 1 .8 1 2.3 0 3.1-.8.7-2 .5-2.6-.2"/>
</symbol>
<symbol id="icon-ecografia" viewBox="0 0 24 24">
  <path d="M5 17.5 8.5 14l3 3-3.5 3.5L5 17.5Z"/>
  <path d="M11.5 12.2a3.5 3.5 0 0 1 0-4.9"/>
  <path d="M14.3 14.5a6.8 6.8 0 0 1 0-9.6"/>
  <path d="M17 16.8a10 10 0 0 1 0-14.1"/>
</symbol>
<symbol id="icon-laboratorio" viewBox="0 0 24 24">
  <path d="M9 3.8h6"/>
  <path d="M10 3.8v5.7L5.6 17a2.7 2.7 0 0 0 2.3 4h8.2a2.7 2.7 0 0 0 2.3-4L14 9.5V3.8"/>
  <path d="M8 15h8"/>
  <path d="M10.5 18h.1M13.8 17h.1"/>
</symbol>
<symbol id="icon-receta" viewBox="0 0 24 24">
  <rect x="6" y="3.8" width="12" height="16.4" rx="2.5"/>
  <path d="M9 8h6M9 12h6M9 16h3"/>
  <path d="M14.8 15.5h3.4M16.5 13.8v3.4"/>
</symbol>
<symbol id="icon-informe" viewBox="0 0 24 24">
  <path d="M6 3.8h8l4 4v12.4H6V3.8Z"/>
  <path d="M14 3.8V8h4"/>
  <path d="M9 12h6M9 15h6M9 18h3.8"/>
</symbol>
</svg>
