<svg xmlns="http://www.w3.org/2000/svg" viewBox="0 0 1254 1254">
  <path d="M 867.0 465.0 L 866.0 466.0 L 864.0 466.0 L 860.0 470.0 L 860.0 471.0 L 859.0 472.0 L 859.0 517.0 L 860.0 518.0 L 860.0 519.0 L 861.0 520.0 L 861.0 521.0 L 862.0 522.0 L 863.0 522.0 L 864.0 523.0 L 865.0 523.0 L 866.0 524.0 L 913.0 524.0 L 914.0 523.0 L 916.0 523.0 L 920.0 519.0 L 920.0 517.0 L 921.0 516.0 L 921.0 473.0 L 920.0 472.0 L 920.0 470.0 L 916.0 466.0 L 914.0 466.0 L 913.0 465.0 Z M 781.0 465.0 L 780.0 466.0 L 778.0 466.0 L 774.0 470.0 L 774.0 472.0 L 773.0 473.0 L 773.0 517.0 L 774.0 518.0 L 774.0 519.0 L 775.0 520.0 L 775.0 521.0 L 776.0 522.0 L 777.0 522.0 L 778.0 523.0 L 779.0 523.0 L 780.0 524.0 L 828.0 524.0 L 829.0 523.0 L 830.0 523.0 L 834.0 519.0 L 834.0 518.0 L 835.0 517.0 L 835.0 473.0 L 834.0 472.0 L 834.0 470.0 L 830.0 466.0 L 828.0 466.0 L 827.0 465.0 Z M 865.0 382.0 L 864.0 383.0 L 863.0 383.0 L 860.0 386.0 L 860.0 388.0 L 859.0 389.0 L 859.0 433.0 L 860.0 434.0 L 860.0 435.0 L 861.0 436.0 L 861.0 437.0 L 862.0 438.0 L 863.0 438.0 L 864.0 439.0 L 865.0 439.0 L 866.0 440.0 L 914.0 440.0 L 915.0 439.0 L 916.0 439.0 L 917.0 438.0 L 918.0 438.0 L 919.0 437.0 L 919.0 436.0 L 920.0 435.0 L 920.0 433.0 L 921.0 432.0 L 921.0 389.0 L 920.0 388.0 L 920.0 387.0 L 919.0 386.0 L 919.0 385.0 L 918.0 384.0 L 917.0 384.0 L 916.0 383.0 L 915.0 383.0 L 914.0 382.0 Z M 779.0 382.0 L 777.0 384.0 L 776.0 384.0 L 775.0 385.0 L 775.0 386.0 L 774.0 387.0 L 774.0 388.0 L 773.0 389.0 L 773.0 433.0 L 774.0 434.0 L 774.0 435.0 L 775.0 436.0 L 775.0 437.0 L 776.0 438.0 L 777.0 438.0 L 778.0 439.0 L 779.0 439.0 L 780.0 440.0 L 828.0 440.0 L 829.0 439.0 L 830.0 439.0 L 831.0 438.0 L 832.0 438.0 L 833.0 437.0 L 833.0 436.0 L 834.0 435.0 L 834.0 434.0 L 835.0 433.0 L 835.0 389.0 L 834.0 388.0 L 834.0 387.0 L 833.0 386.0 L 833.0 385.0 L 831.0 383.0 L 829.0 383.0 L 828.0 382.0 Z M 476.0 362.0 L 475.0 363.0 L 473.0 363.0 L 472.0 364.0 L 470.0 364.0 L 469.0 365.0 L 468.0 365.0 L 467.0 366.0 L 466.0 366.0 L 464.0 368.0 L 463.0 368.0 L 461.0 370.0 L 460.0 370.0 L 457.0 373.0 L 457.0 374.0 L 454.0 377.0 L 454.0 378.0 L 452.0 380.0 L 452.0 381.0 L 451.0 382.0 L 451.0 383.0 L 450.0 384.0 L 450.0 386.0 L 449.0 387.0 L 449.0 390.0 L 448.0 391.0 L 448.0 577.0 L 447.0 578.0 L 434.0 578.0 L 433.0 579.0 L 412.0 579.0 L 411.0 578.0 L 400.0 578.0 L 399.0 579.0 L 383.0 579.0 L 382.0 578.0 L 269.0 578.0 L 268.0 579.0 L 256.0 579.0 L 255.0 580.0 L 252.0 580.0 L 251.0 581.0 L 250.0 581.0 L 249.0 582.0 L 248.0 582.0 L 247.0 583.0 L 246.0 583.0 L 245.0 584.0 L 244.0 584.0 L 234.0 594.0 L 234.0 595.0 L 233.0 596.0 L 233.0 597.0 L 232.0 598.0 L 232.0 599.0 L 231.0 600.0 L 231.0 601.0 L 230.0 602.0 L 230.0 604.0 L 229.0 605.0 L 229.0 608.0 L 228.0 609.0 L 228.0 804.0 L 229.0 805.0 L 229.0 808.0 L 230.0 809.0 L 230.0 811.0 L 231.0 812.0 L 231.0 814.0 L 232.0 815.0 L 232.0 816.0 L 234.0 818.0 L 234.0 819.0 L 236.0 821.0 L 236.0 822.0 L 241.0 827.0 L 242.0 827.0 L 244.0 829.0 L 245.0 829.0 L 247.0 831.0 L 248.0 831.0 L 249.0 832.0 L 251.0 832.0 L 252.0 833.0 L 254.0 833.0 L 255.0 834.0 L 259.0 834.0 L 260.0 835.0 L 417.0 835.0 L 418.0 834.0 L 421.0 834.0 L 422.0 833.0 L 424.0 833.0 L 425.0 832.0 L 426.0 832.0 L 427.0 831.0 L 428.0 831.0 L 431.0 828.0 L 432.0 828.0 L 436.0 824.0 L 436.0 823.0 L 439.0 820.0 L 439.0 819.0 L 442.0 816.0 L 442.0 815.0 L 445.0 812.0 L 445.0 811.0 L 447.0 809.0 L 447.0 808.0 L 448.0 807.0 L 448.0 806.0 L 450.0 804.0 L 450.0 803.0 L 451.0 802.0 L 451.0 801.0 L 452.0 800.0 L 452.0 799.0 L 454.0 797.0 L 454.0 796.0 L 455.0 795.0 L 455.0 794.0 L 456.0 793.0 L 456.0 792.0 L 457.0 791.0 L 457.0 790.0 L 458.0 789.0 L 458.0 788.0 L 459.0 787.0 L 459.0 786.0 L 460.0 785.0 L 460.0 783.0 L 461.0 782.0 L 461.0 781.0 L 462.0 780.0 L 462.0 779.0 L 463.0 778.0 L 463.0 777.0 L 464.0 776.0 L 464.0 775.0 L 465.0 774.0 L 465.0 772.0 L 466.0 771.0 L 466.0 770.0 L 467.0 769.0 L 467.0 767.0 L 468.0 766.0 L 468.0 765.0 L 469.0 764.0 L 469.0 762.0 L 470.0 761.0 L 470.0 760.0 L 471.0 759.0 L 471.0 757.0 L 472.0 756.0 L 472.0 754.0 L 473.0 753.0 L 473.0 751.0 L 474.0 750.0 L 474.0 748.0 L 475.0 747.0 L 475.0 745.0 L 477.0 743.0 L 479.0 743.0 L 480.0 744.0 L 481.0 744.0 L 484.0 747.0 L 485.0 747.0 L 487.0 749.0 L 488.0 749.0 L 491.0 752.0 L 492.0 752.0 L 493.0 753.0 L 494.0 753.0 L 495.0 754.0 L 496.0 754.0 L 497.0 755.0 L 498.0 755.0 L 499.0 756.0 L 500.0 756.0 L 501.0 757.0 L 504.0 757.0 L 505.0 758.0 L 517.0 758.0 L 518.0 757.0 L 521.0 757.0 L 522.0 756.0 L 523.0 756.0 L 524.0 755.0 L 525.0 755.0 L 526.0 754.0 L 527.0 754.0 L 529.0 752.0 L 530.0 752.0 L 534.0 748.0 L 534.0 747.0 L 537.0 744.0 L 537.0 743.0 L 538.0 742.0 L 538.0 741.0 L 539.0 740.0 L 539.0 739.0 L 540.0 738.0 L 540.0 737.0 L 541.0 736.0 L 541.0 734.0 L 542.0 733.0 L 542.0 731.0 L 543.0 730.0 L 543.0 727.0 L 544.0 726.0 L 544.0 722.0 L 545.0 721.0 L 545.0 696.0 L 544.0 695.0 L 544.0 687.0 L 543.0 686.0 L 543.0 680.0 L 542.0 679.0 L 542.0 672.0 L 541.0 671.0 L 541.0 665.0 L 540.0 664.0 L 540.0 656.0 L 539.0 655.0 L 539.0 647.0 L 537.0 647.0 L 537.0 648.0 L 536.0 649.0 L 536.0 650.0 L 535.0 651.0 L 535.0 653.0 L 534.0 654.0 L 534.0 655.0 L 533.0 656.0 L 533.0 659.0 L 532.0 660.0 L 532.0 664.0 L 531.0 665.0 L 531.0 675.0 L 530.0 676.0 L 530.0 689.0 L 531.0 690.0 L 531.0 714.0 L 530.0 715.0 L 530.0 721.0 L 529.0 722.0 L 529.0 725.0 L 528.0 726.0 L 528.0 728.0 L 527.0 729.0 L 527.0 730.0 L 526.0 731.0 L 526.0 732.0 L 525.0 733.0 L 525.0 734.0 L 519.0 740.0 L 518.0 740.0 L 517.0 741.0 L 516.0 741.0 L 515.0 742.0 L 507.0 742.0 L 506.0 741.0 L 504.0 741.0 L 503.0 740.0 L 502.0 740.0 L 501.0 739.0 L 500.0 739.0 L 498.0 737.0 L 497.0 737.0 L 495.0 735.0 L 494.0 735.0 L 491.0 732.0 L 490.0 732.0 L 487.0 729.0 L 486.0 729.0 L 482.0 725.0 L 481.0 725.0 L 476.0 720.0 L 475.0 720.0 L 467.0 712.0 L 466.0 712.0 L 463.0 709.0 L 463.0 708.0 L 457.0 702.0 L 457.0 701.0 L 456.0 700.0 L 456.0 699.0 L 455.0 698.0 L 455.0 697.0 L 454.0 696.0 L 454.0 694.0 L 453.0 693.0 L 453.0 684.0 L 454.0 683.0 L 454.0 681.0 L 455.0 680.0 L 455.0 679.0 L 456.0 678.0 L 456.0 677.0 L 457.0 676.0 L 457.0 675.0 L 459.0 673.0 L 459.0 672.0 L 462.0 669.0 L 462.0 668.0 L 466.0 664.0 L 466.0 663.0 L 469.0 660.0 L 469.0 659.0 L 474.0 654.0 L 474.0 653.0 L 478.0 649.0 L 478.0 648.0 L 485.0 641.0 L 485.0 640.0 L 494.0 631.0 L 494.0 630.0 L 503.0 621.0 L 504.0 621.0 L 510.0 615.0 L 511.0 615.0 L 513.0 613.0 L 514.0 613.0 L 516.0 611.0 L 517.0 611.0 L 519.0 609.0 L 520.0 609.0 L 521.0 608.0 L 522.0 608.0 L 523.0 607.0 L 524.0 607.0 L 525.0 606.0 L 526.0 606.0 L 527.0 605.0 L 528.0 605.0 L 529.0 604.0 L 531.0 604.0 L 532.0 603.0 L 533.0 603.0 L 534.0 602.0 L 537.0 602.0 L 538.0 601.0 L 540.0 601.0 L 541.0 600.0 L 545.0 600.0 L 546.0 599.0 L 550.0 599.0 L 551.0 598.0 L 561.0 598.0 L 562.0 597.0 L 567.0 597.0 L 568.0 598.0 L 577.0 598.0 L 578.0 599.0 L 583.0 599.0 L 584.0 600.0 L 587.0 600.0 L 588.0 601.0 L 591.0 601.0 L 592.0 602.0 L 594.0 602.0 L 595.0 603.0 L 597.0 603.0 L 598.0 604.0 L 599.0 604.0 L 600.0 605.0 L 601.0 605.0 L 602.0 606.0 L 603.0 606.0 L 604.0 607.0 L 605.0 607.0 L 606.0 608.0 L 607.0 608.0 L 608.0 609.0 L 609.0 609.0 L 611.0 611.0 L 612.0 611.0 L 615.0 614.0 L 616.0 614.0 L 624.0 622.0 L 624.0 623.0 L 627.0 626.0 L 627.0 627.0 L 629.0 629.0 L 629.0 630.0 L 630.0 631.0 L 630.0 632.0 L 635.0 637.0 L 636.0 637.0 L 638.0 639.0 L 640.0 639.0 L 641.0 640.0 L 643.0 640.0 L 644.0 641.0 L 648.0 641.0 L 649.0 642.0 L 656.0 642.0 L 657.0 643.0 L 664.0 643.0 L 665.0 644.0 L 672.0 644.0 L 673.0 645.0 L 681.0 645.0 L 682.0 646.0 L 687.0 646.0 L 688.0 647.0 L 692.0 647.0 L 693.0 648.0 L 694.0 648.0 L 699.0 653.0 L 699.0 656.0 L 700.0 657.0 L 700.0 664.0 L 699.0 665.0 L 699.0 672.0 L 698.0 673.0 L 698.0 677.0 L 697.0 678.0 L 697.0 681.0 L 696.0 682.0 L 696.0 684.0 L 695.0 685.0 L 695.0 686.0 L 694.0 687.0 L 694.0 689.0 L 693.0 690.0 L 693.0 691.0 L 692.0 692.0 L 692.0 693.0 L 691.0 694.0 L 691.0 695.0 L 689.0 697.0 L 689.0 698.0 L 687.0 700.0 L 687.0 701.0 L 677.0 711.0 L 676.0 711.0 L 673.0 714.0 L 672.0 714.0 L 671.0 715.0 L 670.0 715.0 L 669.0 716.0 L 668.0 716.0 L 667.0 717.0 L 666.0 717.0 L 665.0 718.0 L 663.0 718.0 L 662.0 719.0 L 661.0 719.0 L 660.0 720.0 L 658.0 720.0 L 657.0 721.0 L 654.0 721.0 L 653.0 722.0 L 650.0 722.0 L 649.0 723.0 L 643.0 723.0 L 642.0 724.0 L 635.0 724.0 L 634.0 725.0 L 628.0 725.0 L 627.0 726.0 L 624.0 726.0 L 623.0 727.0 L 620.0 727.0 L 619.0 728.0 L 617.0 728.0 L 616.0 729.0 L 614.0 729.0 L 613.0 730.0 L 611.0 730.0 L 610.0 731.0 L 608.0 731.0 L 607.0 732.0 L 606.0 732.0 L 605.0 733.0 L 604.0 733.0 L 603.0 734.0 L 602.0 734.0 L 601.0 735.0 L 600.0 735.0 L 599.0 736.0 L 598.0 736.0 L 597.0 737.0 L 596.0 737.0 L 595.0 738.0 L 594.0 738.0 L 592.0 740.0 L 591.0 740.0 L 590.0 741.0 L 589.0 741.0 L 587.0 743.0 L 586.0 743.0 L 584.0 745.0 L 583.0 745.0 L 581.0 747.0 L 580.0 747.0 L 577.0 750.0 L 576.0 750.0 L 571.0 755.0 L 570.0 755.0 L 554.0 771.0 L 554.0 772.0 L 549.0 777.0 L 549.0 778.0 L 546.0 781.0 L 546.0 782.0 L 544.0 784.0 L 544.0 785.0 L 541.0 788.0 L 541.0 789.0 L 539.0 791.0 L 539.0 792.0 L 537.0 794.0 L 537.0 795.0 L 535.0 797.0 L 535.0 798.0 L 533.0 800.0 L 533.0 801.0 L 532.0 802.0 L 532.0 803.0 L 530.0 805.0 L 530.0 806.0 L 529.0 807.0 L 529.0 808.0 L 527.0 810.0 L 527.0 811.0 L 525.0 813.0 L 525.0 814.0 L 523.0 816.0 L 523.0 817.0 L 521.0 819.0 L 521.0 820.0 L 519.0 822.0 L 519.0 823.0 L 516.0 826.0 L 516.0 827.0 L 512.0 831.0 L 512.0 832.0 L 500.0 844.0 L 499.0 844.0 L 494.0 849.0 L 493.0 849.0 L 491.0 851.0 L 490.0 851.0 L 488.0 853.0 L 487.0 853.0 L 485.0 855.0 L 484.0 855.0 L 483.0 856.0 L 482.0 856.0 L 481.0 857.0 L 480.0 857.0 L 479.0 858.0 L 478.0 858.0 L 477.0 859.0 L 476.0 859.0 L 475.0 860.0 L 474.0 860.0 L 473.0 861.0 L 471.0 861.0 L 470.0 862.0 L 468.0 862.0 L 467.0 863.0 L 465.0 863.0 L 464.0 864.0 L 462.0 864.0 L 461.0 865.0 L 458.0 865.0 L 457.0 866.0 L 452.0 866.0 L 451.0 867.0 L 438.0 867.0 L 437.0 868.0 L 437.0 1009.0 L 438.0 1010.0 L 438.0 1014.0 L 439.0 1015.0 L 439.0 1018.0 L 440.0 1019.0 L 440.0 1020.0 L 441.0 1021.0 L 441.0 1023.0 L 442.0 1024.0 L 442.0 1025.0 L 444.0 1027.0 L 444.0 1028.0 L 449.0 1033.0 L 449.0 1034.0 L 450.0 1034.0 L 454.0 1038.0 L 455.0 1038.0 L 457.0 1040.0 L 458.0 1040.0 L 459.0 1041.0 L 461.0 1041.0 L 462.0 1042.0 L 463.0 1042.0 L 464.0 1043.0 L 467.0 1043.0 L 468.0 1044.0 L 474.0 1044.0 L 475.0 1045.0 L 524.0 1045.0 L 525.0 1044.0 L 530.0 1044.0 L 531.0 1045.0 L 575.0 1045.0 L 576.0 1044.0 L 585.0 1044.0 L 586.0 1045.0 L 618.0 1045.0 L 619.0 1044.0 L 626.0 1044.0 L 627.0 1045.0 L 651.0 1045.0 L 652.0 1044.0 L 655.0 1044.0 L 656.0 1045.0 L 668.0 1045.0 L 669.0 1044.0 L 674.0 1044.0 L 675.0 1045.0 L 690.0 1045.0 L 691.0 1044.0 L 697.0 1044.0 L 698.0 1043.0 L 700.0 1043.0 L 701.0 1042.0 L 703.0 1042.0 L 704.0 1041.0 L 705.0 1041.0 L 706.0 1040.0 L 707.0 1040.0 L 708.0 1039.0 L 709.0 1039.0 L 710.0 1038.0 L 711.0 1038.0 L 720.0 1029.0 L 720.0 1028.0 L 722.0 1026.0 L 722.0 1025.0 L 723.0 1024.0 L 723.0 1023.0 L 724.0 1022.0 L 724.0 1021.0 L 725.0 1020.0 L 725.0 1018.0 L 726.0 1017.0 L 726.0 1014.0 L 727.0 1013.0 L 727.0 836.0 L 728.0 835.0 L 881.0 835.0 L 882.0 834.0 L 886.0 834.0 L 887.0 833.0 L 889.0 833.0 L 890.0 832.0 L 892.0 832.0 L 893.0 831.0 L 894.0 831.0 L 896.0 829.0 L 897.0 829.0 L 900.0 826.0 L 901.0 826.0 L 905.0 822.0 L 905.0 821.0 L 907.0 819.0 L 907.0 818.0 L 909.0 816.0 L 909.0 815.0 L 910.0 814.0 L 910.0 812.0 L 911.0 811.0 L 911.0 809.0 L 912.0 808.0 L 912.0 804.0 L 913.0 803.0 L 913.0 610.0 L 912.0 609.0 L 912.0 605.0 L 911.0 604.0 L 911.0 602.0 L 910.0 601.0 L 910.0 600.0 L 909.0 599.0 L 909.0 598.0 L 908.0 597.0 L 908.0 596.0 L 906.0 594.0 L 906.0 593.0 L 904.0 591.0 L 904.0 590.0 L 902.0 588.0 L 901.0 588.0 L 897.0 584.0 L 896.0 584.0 L 895.0 583.0 L 894.0 583.0 L 893.0 582.0 L 892.0 582.0 L 891.0 581.0 L 890.0 581.0 L 889.0 580.0 L 887.0 580.0 L 886.0 579.0 L 879.0 579.0 L 878.0 578.0 L 868.0 578.0 L 867.0 579.0 L 864.0 579.0 L 863.0 578.0 L 860.0 578.0 L 859.0 579.0 L 838.0 579.0 L 837.0 578.0 L 709.0 578.0 L 708.0 579.0 L 700.0 579.0 L 698.0 577.0 L 698.0 393.0 L 697.0 392.0 L 697.0 388.0 L 696.0 387.0 L 696.0 385.0 L 695.0 384.0 L 695.0 383.0 L 694.0 382.0 L 694.0 381.0 L 693.0 380.0 L 693.0 379.0 L 692.0 378.0 L 692.0 377.0 L 683.0 368.0 L 682.0 368.0 L 680.0 366.0 L 679.0 366.0 L 678.0 365.0 L 677.0 365.0 L 676.0 364.0 L 674.0 364.0 L 673.0 363.0 L 670.0 363.0 L 669.0 362.0 Z M 619.0 746.0 L 620.0 745.0 L 623.0 745.0 L 624.0 746.0 L 624.0 751.0 L 623.0 752.0 L 623.0 759.0 L 622.0 760.0 L 622.0 766.0 L 621.0 767.0 L 621.0 774.0 L 620.0 775.0 L 620.0 782.0 L 622.0 782.0 L 623.0 783.0 L 624.0 783.0 L 625.0 784.0 L 627.0 784.0 L 628.0 785.0 L 629.0 785.0 L 630.0 786.0 L 631.0 786.0 L 632.0 787.0 L 633.0 787.0 L 634.0 788.0 L 635.0 788.0 L 636.0 789.0 L 637.0 789.0 L 639.0 791.0 L 640.0 791.0 L 643.0 794.0 L 644.0 794.0 L 651.0 801.0 L 651.0 802.0 L 653.0 804.0 L 653.0 805.0 L 654.0 806.0 L 654.0 807.0 L 655.0 808.0 L 655.0 810.0 L 656.0 811.0 L 656.0 814.0 L 657.0 815.0 L 657.0 818.0 L 658.0 819.0 L 658.0 821.0 L 660.0 823.0 L 660.0 824.0 L 667.0 831.0 L 668.0 831.0 L 673.0 836.0 L 673.0 843.0 L 672.0 844.0 L 672.0 845.0 L 671.0 846.0 L 671.0 847.0 L 670.0 848.0 L 670.0 850.0 L 669.0 851.0 L 669.0 853.0 L 667.0 855.0 L 667.0 856.0 L 666.0 857.0 L 666.0 858.0 L 657.0 867.0 L 656.0 867.0 L 655.0 868.0 L 653.0 868.0 L 652.0 869.0 L 650.0 869.0 L 649.0 870.0 L 646.0 870.0 L 645.0 871.0 L 636.0 871.0 L 635.0 872.0 L 632.0 872.0 L 631.0 873.0 L 629.0 873.0 L 628.0 874.0 L 627.0 874.0 L 626.0 875.0 L 625.0 875.0 L 623.0 877.0 L 622.0 877.0 L 618.0 881.0 L 618.0 882.0 L 616.0 884.0 L 616.0 885.0 L 615.0 886.0 L 615.0 887.0 L 614.0 888.0 L 614.0 890.0 L 613.0 891.0 L 613.0 894.0 L 612.0 895.0 L 612.0 901.0 L 611.0 902.0 L 611.0 913.0 L 612.0 914.0 L 612.0 934.0 L 611.0 935.0 L 611.0 942.0 L 610.0 943.0 L 610.0 947.0 L 609.0 948.0 L 609.0 950.0 L 608.0 951.0 L 608.0 954.0 L 607.0 955.0 L 607.0 956.0 L 606.0 957.0 L 606.0 959.0 L 605.0 960.0 L 602.0 960.0 L 601.0 959.0 L 601.0 954.0 L 600.0 953.0 L 600.0 950.0 L 599.0 949.0 L 599.0 946.0 L 598.0 945.0 L 598.0 943.0 L 597.0 942.0 L 597.0 941.0 L 596.0 940.0 L 596.0 938.0 L 595.0 937.0 L 595.0 936.0 L 594.0 935.0 L 594.0 933.0 L 593.0 932.0 L 593.0 931.0 L 592.0 930.0 L 592.0 929.0 L 591.0 928.0 L 591.0 927.0 L 589.0 925.0 L 589.0 924.0 L 588.0 923.0 L 588.0 922.0 L 587.0 921.0 L 587.0 920.0 L 585.0 918.0 L 585.0 917.0 L 584.0 916.0 L 584.0 915.0 L 582.0 913.0 L 582.0 912.0 L 580.0 910.0 L 580.0 909.0 L 579.0 908.0 L 579.0 907.0 L 577.0 905.0 L 577.0 904.0 L 575.0 902.0 L 575.0 901.0 L 574.0 900.0 L 574.0 899.0 L 573.0 898.0 L 573.0 897.0 L 571.0 895.0 L 571.0 894.0 L 570.0 893.0 L 570.0 892.0 L 569.0 891.0 L 569.0 890.0 L 568.0 889.0 L 568.0 888.0 L 567.0 887.0 L 567.0 886.0 L 566.0 885.0 L 566.0 884.0 L 565.0 883.0 L 565.0 882.0 L 564.0 881.0 L 564.0 879.0 L 563.0 878.0 L 563.0 877.0 L 562.0 876.0 L 562.0 874.0 L 561.0 873.0 L 561.0 871.0 L 560.0 870.0 L 560.0 868.0 L 559.0 867.0 L 559.0 863.0 L 558.0 862.0 L 558.0 859.0 L 557.0 858.0 L 557.0 853.0 L 556.0 852.0 L 556.0 827.0 L 557.0 826.0 L 557.0 822.0 L 558.0 821.0 L 558.0 817.0 L 559.0 816.0 L 559.0 814.0 L 560.0 813.0 L 560.0 811.0 L 561.0 810.0 L 561.0 808.0 L 562.0 807.0 L 562.0 805.0 L 563.0 804.0 L 563.0 803.0 L 564.0 802.0 L 564.0 801.0 L 565.0 800.0 L 565.0 799.0 L 566.0 798.0 L 566.0 797.0 L 567.0 796.0 L 567.0 795.0 L 568.0 794.0 L 568.0 793.0 L 570.0 791.0 L 570.0 790.0 L 571.0 789.0 L 571.0 788.0 L 573.0 786.0 L 573.0 785.0 L 575.0 783.0 L 575.0 782.0 L 579.0 778.0 L 579.0 777.0 L 596.0 760.0 L 597.0 760.0 L 600.0 757.0 L 601.0 757.0 L 604.0 754.0 L 605.0 754.0 L 607.0 752.0 L 608.0 752.0 L 609.0 751.0 L 610.0 751.0 L 612.0 749.0 L 613.0 749.0 L 614.0 748.0 L 615.0 748.0 L 616.0 747.0 L 617.0 747.0 L 618.0 746.0 Z M 859.0 252.0 L 859.0 258.0 L 858.0 259.0 L 858.0 293.0 L 857.0 294.0 L 857.0 296.0 L 856.0 297.0 L 856.0 300.0 L 908.0 300.0 L 909.0 301.0 L 913.0 301.0 L 914.0 302.0 L 917.0 302.0 L 918.0 303.0 L 920.0 303.0 L 921.0 304.0 L 922.0 304.0 L 923.0 305.0 L 924.0 305.0 L 925.0 306.0 L 926.0 306.0 L 927.0 307.0 L 928.0 307.0 L 930.0 309.0 L 931.0 309.0 L 933.0 311.0 L 934.0 311.0 L 946.0 323.0 L 946.0 324.0 L 948.0 326.0 L 948.0 327.0 L 949.0 328.0 L 949.0 329.0 L 950.0 330.0 L 950.0 331.0 L 951.0 332.0 L 951.0 333.0 L 952.0 334.0 L 952.0 335.0 L 953.0 336.0 L 953.0 338.0 L 954.0 339.0 L 954.0 341.0 L 955.0 342.0 L 955.0 346.0 L 956.0 347.0 L 956.0 774.0 L 955.0 775.0 L 955.0 779.0 L 954.0 780.0 L 954.0 782.0 L 953.0 783.0 L 953.0 784.0 L 952.0 785.0 L 952.0 786.0 L 951.0 787.0 L 951.0 788.0 L 950.0 789.0 L 950.0 790.0 L 949.0 791.0 L 949.0 792.0 L 945.0 796.0 L 945.0 797.0 L 943.0 799.0 L 942.0 799.0 L 939.0 802.0 L 938.0 802.0 L 937.0 803.0 L 936.0 803.0 L 935.0 804.0 L 934.0 804.0 L 934.0 847.0 L 937.0 847.0 L 938.0 846.0 L 942.0 846.0 L 943.0 845.0 L 945.0 845.0 L 946.0 844.0 L 948.0 844.0 L 949.0 843.0 L 950.0 843.0 L 951.0 842.0 L 953.0 842.0 L 954.0 841.0 L 955.0 841.0 L 957.0 839.0 L 958.0 839.0 L 959.0 838.0 L 960.0 838.0 L 961.0 837.0 L 962.0 837.0 L 964.0 835.0 L 965.0 835.0 L 969.0 831.0 L 970.0 831.0 L 982.0 819.0 L 982.0 818.0 L 984.0 816.0 L 984.0 815.0 L 987.0 812.0 L 987.0 811.0 L 988.0 810.0 L 988.0 809.0 L 989.0 808.0 L 989.0 807.0 L 990.0 806.0 L 990.0 805.0 L 991.0 804.0 L 991.0 803.0 L 992.0 802.0 L 992.0 801.0 L 993.0 800.0 L 993.0 799.0 L 994.0 798.0 L 994.0 796.0 L 995.0 795.0 L 995.0 793.0 L 996.0 792.0 L 996.0 790.0 L 997.0 789.0 L 997.0 786.0 L 998.0 785.0 L 998.0 781.0 L 999.0 780.0 L 999.0 772.0 L 1000.0 771.0 L 1000.0 743.0 L 999.0 742.0 L 999.0 649.0 L 1000.0 648.0 L 1000.0 644.0 L 999.0 643.0 L 999.0 636.0 L 1000.0 635.0 L 1000.0 347.0 L 999.0 346.0 L 999.0 338.0 L 998.0 337.0 L 998.0 332.0 L 997.0 331.0 L 997.0 327.0 L 996.0 326.0 L 996.0 324.0 L 995.0 323.0 L 995.0 320.0 L 994.0 319.0 L 994.0 318.0 L 993.0 317.0 L 993.0 315.0 L 992.0 314.0 L 992.0 313.0 L 991.0 312.0 L 991.0 310.0 L 990.0 309.0 L 990.0 308.0 L 989.0 307.0 L 989.0 306.0 L 988.0 305.0 L 988.0 304.0 L 986.0 302.0 L 986.0 301.0 L 985.0 300.0 L 985.0 299.0 L 983.0 297.0 L 983.0 296.0 L 980.0 293.0 L 980.0 292.0 L 977.0 289.0 L 977.0 288.0 L 963.0 274.0 L 962.0 274.0 L 958.0 270.0 L 957.0 270.0 L 955.0 268.0 L 954.0 268.0 L 952.0 266.0 L 951.0 266.0 L 950.0 265.0 L 949.0 265.0 L 948.0 264.0 L 947.0 264.0 L 945.0 262.0 L 944.0 262.0 L 943.0 261.0 L 942.0 261.0 L 941.0 260.0 L 939.0 260.0 L 938.0 259.0 L 937.0 259.0 L 936.0 258.0 L 934.0 258.0 L 933.0 257.0 L 932.0 257.0 L 931.0 256.0 L 928.0 256.0 L 927.0 255.0 L 925.0 255.0 L 924.0 254.0 L 920.0 254.0 L 919.0 253.0 L 914.0 253.0 L 913.0 252.0 Z M 504.0 252.0 L 504.0 288.0 L 503.0 289.0 L 503.0 293.0 L 502.0 294.0 L 502.0 296.0 L 501.0 297.0 L 501.0 300.0 L 768.0 300.0 L 768.0 298.0 L 767.0 297.0 L 767.0 295.0 L 766.0 294.0 L 766.0 291.0 L 765.0 290.0 L 765.0 252.0 Z M 346.0 252.0 L 345.0 253.0 L 340.0 253.0 L 339.0 254.0 L 336.0 254.0 L 335.0 255.0 L 332.0 255.0 L 331.0 256.0 L 329.0 256.0 L 328.0 257.0 L 326.0 257.0 L 325.0 258.0 L 323.0 258.0 L 322.0 259.0 L 321.0 259.0 L 320.0 260.0 L 318.0 260.0 L 317.0 261.0 L 316.0 261.0 L 315.0 262.0 L 314.0 262.0 L 312.0 264.0 L 311.0 264.0 L 310.0 265.0 L 309.0 265.0 L 308.0 266.0 L 307.0 266.0 L 305.0 268.0 L 304.0 268.0 L 302.0 270.0 L 301.0 270.0 L 298.0 273.0 L 297.0 273.0 L 281.0 289.0 L 281.0 290.0 L 278.0 293.0 L 278.0 294.0 L 276.0 296.0 L 276.0 297.0 L 274.0 299.0 L 274.0 300.0 L 273.0 301.0 L 273.0 302.0 L 271.0 304.0 L 271.0 305.0 L 270.0 306.0 L 270.0 307.0 L 269.0 308.0 L 269.0 309.0 L 268.0 310.0 L 268.0 312.0 L 267.0 313.0 L 267.0 314.0 L 266.0 315.0 L 266.0 316.0 L 265.0 317.0 L 265.0 319.0 L 264.0 320.0 L 264.0 323.0 L 263.0 324.0 L 263.0 326.0 L 262.0 327.0 L 262.0 330.0 L 261.0 331.0 L 261.0 336.0 L 260.0 337.0 L 260.0 345.0 L 259.0 346.0 L 259.0 545.0 L 260.0 546.0 L 306.0 546.0 L 307.0 545.0 L 307.0 344.0 L 308.0 343.0 L 308.0 340.0 L 309.0 339.0 L 309.0 336.0 L 310.0 335.0 L 310.0 334.0 L 311.0 333.0 L 311.0 331.0 L 312.0 330.0 L 312.0 329.0 L 314.0 327.0 L 314.0 326.0 L 315.0 325.0 L 315.0 324.0 L 318.0 321.0 L 318.0 320.0 L 326.0 312.0 L 327.0 312.0 L 330.0 309.0 L 331.0 309.0 L 333.0 307.0 L 334.0 307.0 L 335.0 306.0 L 336.0 306.0 L 337.0 305.0 L 338.0 305.0 L 339.0 304.0 L 340.0 304.0 L 341.0 303.0 L 343.0 303.0 L 344.0 302.0 L 346.0 302.0 L 347.0 301.0 L 351.0 301.0 L 352.0 300.0 L 413.0 300.0 L 413.0 296.0 L 412.0 295.0 L 412.0 292.0 L 411.0 291.0 L 411.0 252.0 Z M 808.0 185.0 L 807.0 186.0 L 804.0 186.0 L 803.0 187.0 L 801.0 187.0 L 800.0 188.0 L 799.0 188.0 L 797.0 190.0 L 796.0 190.0 L 793.0 193.0 L 792.0 193.0 L 792.0 194.0 L 789.0 197.0 L 789.0 198.0 L 787.0 200.0 L 787.0 201.0 L 786.0 202.0 L 786.0 203.0 L 785.0 204.0 L 785.0 207.0 L 784.0 208.0 L 784.0 290.0 L 785.0 291.0 L 785.0 293.0 L 786.0 294.0 L 786.0 295.0 L 787.0 296.0 L 787.0 297.0 L 788.0 298.0 L 788.0 299.0 L 789.0 300.0 L 789.0 301.0 L 794.0 306.0 L 795.0 306.0 L 797.0 308.0 L 798.0 308.0 L 799.0 309.0 L 800.0 309.0 L 801.0 310.0 L 802.0 310.0 L 803.0 311.0 L 805.0 311.0 L 806.0 312.0 L 819.0 312.0 L 820.0 311.0 L 822.0 311.0 L 823.0 310.0 L 825.0 310.0 L 826.0 309.0 L 827.0 309.0 L 829.0 307.0 L 830.0 307.0 L 836.0 301.0 L 836.0 300.0 L 837.0 299.0 L 837.0 298.0 L 839.0 296.0 L 839.0 294.0 L 840.0 293.0 L 840.0 291.0 L 841.0 290.0 L 841.0 207.0 L 840.0 206.0 L 840.0 204.0 L 839.0 203.0 L 839.0 202.0 L 838.0 201.0 L 838.0 200.0 L 837.0 199.0 L 837.0 198.0 L 833.0 194.0 L 833.0 193.0 L 832.0 192.0 L 831.0 192.0 L 829.0 190.0 L 828.0 190.0 L 826.0 188.0 L 825.0 188.0 L 824.0 187.0 L 822.0 187.0 L 821.0 186.0 L 818.0 186.0 L 817.0 185.0 Z M 453.0 185.0 L 452.0 186.0 L 450.0 186.0 L 449.0 187.0 L 447.0 187.0 L 446.0 188.0 L 445.0 188.0 L 444.0 189.0 L 443.0 189.0 L 442.0 190.0 L 441.0 190.0 L 435.0 196.0 L 435.0 197.0 L 433.0 199.0 L 433.0 200.0 L 432.0 201.0 L 432.0 202.0 L 431.0 203.0 L 431.0 205.0 L 430.0 206.0 L 430.0 208.0 L 429.0 209.0 L 429.0 288.0 L 430.0 289.0 L 430.0 292.0 L 431.0 293.0 L 431.0 294.0 L 432.0 295.0 L 432.0 297.0 L 434.0 299.0 L 434.0 300.0 L 442.0 308.0 L 443.0 308.0 L 444.0 309.0 L 445.0 309.0 L 446.0 310.0 L 448.0 310.0 L 449.0 311.0 L 451.0 311.0 L 452.0 312.0 L 465.0 312.0 L 466.0 311.0 L 468.0 311.0 L 469.0 310.0 L 470.0 310.0 L 471.0 309.0 L 472.0 309.0 L 473.0 308.0 L 474.0 308.0 L 482.0 300.0 L 482.0 299.0 L 484.0 297.0 L 484.0 295.0 L 485.0 294.0 L 485.0 293.0 L 486.0 292.0 L 486.0 288.0 L 487.0 287.0 L 487.0 210.0 L 486.0 209.0 L 486.0 206.0 L 485.0 205.0 L 485.0 203.0 L 484.0 202.0 L 484.0 201.0 L 483.0 200.0 L 483.0 199.0 L 481.0 197.0 L 481.0 196.0 L 476.0 191.0 L 475.0 191.0 L 473.0 189.0 L 472.0 189.0 L 471.0 188.0 L 470.0 188.0 L 469.0 187.0 L 467.0 187.0 L 466.0 186.0 L 464.0 186.0 L 463.0 185.0 Z" fill="#000000" fill-rule="evenodd"/>
</svg>