<svg xmlns="http://www.w3.org/2000/svg" style="display:none">
<symbol id="icon-configuracion" viewBox="0 0 24 24">
  <circle cx="12" cy="12" r="2.7"/>
<path d="M12 3.2v2.1M12 18.7v2.1M3.2 12h2.1M18.7 12h2.1M5.8 5.8l1.5 1.5M16.7 16.7l1.5 1.5M18.2 5.8l-1.5 1.5M7.3 16.7l-1.5 1.5"/>
<path d="M9.7 4.2h4.6M9.7 19.8h4.6M4.2 9.7v4.6M19.8 9.7v4.6"/>
</symbol>
<symbol id="icon-modo-oscuro" viewBox="0 0 24 24">
  <path d="M19.4 15.2A7.2 7.2 0 0 1 8.8 4.6 8.2 8.2 0 1 0 19.4 15.2Z"/>
</symbol>
<symbol id="icon-subir-datos" viewBox="0 0 24 24">
  <path d="M12 15.8V5.4"/>
<path d="M8.4 9 12 5.4 15.6 9"/>
<path d="M5 16.8v2.2h14v-2.2"/>
</symbol>
<symbol id="icon-descargar-datos" viewBox="0 0 24 24">
  <path d="M12 4.8v10.4"/>
<path d="M8.4 11.2 12 14.8 15.6 11.2"/>
<path d="M5 17v2.2h14V17"/>
</symbol>
<symbol id="icon-camara" viewBox="0 0 24 24">
  <path d="M8.2 6.2 9.4 4.5h5.2l1.2 1.7H19a2 2 0 0 1 2 2v7.8a2 2 0 0 1-2 2H5a2 2 0 0 1-2-2V8.2a2 2 0 0 1 2-2h3.2Z"/>
<circle cx="12" cy="12.2" r="3.4"/>
<path d="M17.5 9.2h.1"/>
</symbol>
<symbol id="icon-galeria" viewBox="0 0 24 24">
  <rect x="3.5" y="4.5" width="17" height="15" rx="2.5"/>
<circle cx="8.2" cy="9" r="1.3"/>
<path d="M5.8 16l3.6-3.6 2.8 2.8 2.6-2.6 3.4 3.4"/>
<path d="M14.4 10.8l1.7-1.7 2.1 2.1"/>
</symbol>
<symbol id="icon-buscar" viewBox="0 0 24 24">
  <circle cx="10.5" cy="10.5" r="5.8"/>
<path d="M15 15l4.5 4.5"/>
</symbol>
<symbol id="icon-cerrar" viewBox="0 0 24 24">
  <path d="M6.5 6.5l11 11M17.5 6.5l-11 11"/>
</symbol>
</svg>
